<?xml version="1.0" encoding="UTF-8"?>
<svg width="76px" height="58px" viewBox="0 0 76 58" version="1.1" xmlns="http://www.w3.org/2000/svg" xmlns:xlink="http://www.w3.org/1999/xlink">
    <!-- Generator: sketchtool 49 (51002) - http://www.bohemiancoding.com/sketch -->
    <title>55615F81-BF60-47FA-A8A4-FB4E6182E4D8</title>
    <desc>Created with sketchtool.</desc>
    <defs></defs>
    <g id="Projekt" stroke="none" stroke-width="1" fill="none" fill-rule="evenodd" fill-opacity="0.1">
        <g id="Aktualnosci-ARTYKUL" transform="translate(-539.000000, -749.000000)" fill="#7C2700">
            <path d="M574,764.130435 C574,772.956566 571.188783,781.222184 565.566265,788.927536 C559.943747,796.632889 552.283181,802.656983 542.584337,807 L541.53012,803.637681 C547.996016,800.415443 553.337328,796.317658 557.554217,791.344203 C561.771105,786.370748 564.090359,781.012106 564.512048,775.268116 C560.435723,779.330938 556.008056,781.362319 551.228916,781.362319 C547.293153,781.362319 544.271095,780.381652 542.162651,778.42029 C540.054206,776.458927 539,773.657023 539,770.014493 C539,764.270503 541.073272,759.332146 545.21988,755.199275 C549.366487,751.066404 554.321256,749 560.084337,749 C569.361492,749 574,754.043428 574,764.130435 Z M615,764.130435 C615,772.956566 612.188783,781.222184 606.566265,788.927536 C600.943747,796.632889 593.283181,802.656983 583.584337,807 L582.53012,803.637681 C588.996016,800.415443 594.302188,796.317658 598.448795,791.344203 C602.595402,786.370748 604.879516,781.012106 605.301205,775.268116 C601.506005,779.330938 597.148619,781.362319 592.228916,781.362319 C588.293153,781.362319 585.271095,780.381652 583.162651,778.42029 C581.054206,776.458927 580,773.657023 580,770.014493 C580,764.270503 582.073272,759.332146 586.21988,755.199275 C590.366487,751.066404 595.321256,749 601.084337,749 C610.361492,749 615,754.043428 615,764.130435 Z" id="cudzyslow"></path>
        </g>
    </g>
</svg>